<svg width="80" height="81" viewBox="0 0 80 81" fill="none" xmlns="http://www.w3.org/2000/svg">
<g clip-path="url(#clip0_62_16)">
<path d="M23.4199 48.1456H9.21146V71.7217H23.4199V48.1456ZM18.7354 67.0373H13.8953V52.8295H18.7354V67.0373Z" fill="#6F5B3E"/>
<path d="M28.1037 52.8295V71.7217H42.1552V52.8295H28.1037ZM37.4714 67.0373H32.7875V57.5133H37.4714V67.0373Z" fill="#6F5B3E"/>
<path d="M65.5751 71.7217H79.7829V43.4618H65.5751V71.7217ZM70.2589 48.1456H75.099V67.0373H70.2589V48.1456Z" fill="#6F5B3E"/>
<path d="M46.8391 34.0941V71.7218H60.8912V34.0941H46.8391ZM56.2068 67.0373H51.5229V38.778H56.2068V67.0373Z" fill="#6F5B3E"/>
<path d="M65.3377 10.0016L70.7832 15.358H60.4878C59.521 12.6322 56.9178 10.6742 53.8649 10.6742C49.991 10.6742 46.8391 13.8261 46.8391 17.7C46.8391 19.0598 47.2285 20.33 47.9005 21.4066L37.4378 34.4853C36.714 34.2332 35.9376 34.094 35.1295 34.094C33.2386 34.094 31.5211 34.846 30.2564 36.0649L23.3637 32.6188C23.3991 32.3344 23.4192 32.0457 23.4192 31.7521C23.4192 27.8782 20.2674 24.7264 16.3935 24.7264C12.5122 24.7264 9.21146 27.863 9.21146 31.7521C9.21146 35.6334 12.5049 38.7779 16.3935 38.7779C18.2843 38.7779 20.0019 38.0259 21.2659 36.8071L28.1586 40.2531C28.1238 40.5375 28.1031 40.8262 28.1031 41.1198C28.1031 44.9937 31.255 48.1456 35.1295 48.1456C39.0034 48.1456 42.1552 44.9937 42.1552 41.1198C42.1552 39.76 41.7658 38.4898 41.0938 37.4131L51.5565 24.3345C52.2798 24.5872 53.0561 24.7257 53.8649 24.7257C56.9178 24.7257 59.521 22.7677 60.4878 20.0419H70.7832L65.3377 25.3984L68.6226 28.7376L79.8439 17.7L68.6226 6.66235L65.3377 10.0016ZM16.3935 34.094C15.0629 34.094 13.8953 32.9997 13.8953 31.7521C13.8953 30.504 15.0629 29.4102 16.3935 29.4102C17.685 29.4102 18.7354 30.4606 18.7354 31.7521C18.7354 33.043 17.685 34.094 16.3935 34.094ZM35.1295 43.4617C33.838 43.4617 32.7876 42.4113 32.7876 41.1198C32.7876 39.8283 33.838 38.7779 35.1295 38.7779C36.421 38.7779 37.4714 39.8283 37.4714 41.1198C37.4714 42.4113 36.421 43.4617 35.1295 43.4617ZM53.8649 20.0419C52.574 20.0419 51.5229 18.9915 51.5229 17.7C51.5229 16.4085 52.574 15.358 53.8649 15.358C55.1564 15.358 56.2068 16.4085 56.2068 17.7C56.2068 18.9915 55.1564 20.0419 53.8649 20.0419Z" fill="#6F5B3E"/>
<path d="M4.5276 1.15027H-0.15625V81.0894H79.7829V76.4055H4.5276V1.15027Z" fill="#6F5B3E"/>
</g>
<defs>
<clipPath id="clip0_62_16">
<rect width="80" height="80" fill="white" transform="translate(0 0.994141)"/>
</clipPath>
</defs>
</svg>
