<svg width="33" height="33" viewBox="0 0 33 33" fill="none" xmlns="http://www.w3.org/2000/svg">
<path d="M16.0946 9.57715C12.1439 9.57715 8.87057 12.7941 8.87057 16.8011C8.87057 20.8082 12.0875 24.0251 16.0946 24.0251C20.1016 24.0251 23.3185 20.7517 23.3185 16.8011C23.3185 12.8505 20.0452 9.57715 16.0946 9.57715ZM16.0946 21.429C13.5549 21.429 11.4667 19.3408 11.4667 16.8011C11.4667 14.2615 13.5549 12.1733 16.0946 12.1733C18.6342 12.1733 20.7224 14.2615 20.7224 16.8011C20.7224 19.3408 18.6342 21.429 16.0946 21.429Z" fill="white"/>
<path d="M23.6007 11.0446C24.5047 11.0446 25.2374 10.3118 25.2374 9.40792C25.2374 8.50401 24.5047 7.77124 23.6007 7.77124C22.6968 7.77124 21.9641 8.50401 21.9641 9.40792C21.9641 10.3118 22.6968 11.0446 23.6007 11.0446Z" fill="white"/>
<path d="M27.8335 5.17502C26.3662 3.65121 24.278 2.86108 21.9076 2.86108H10.2815C5.37145 2.86108 2.09808 6.13445 2.09808 11.0445V22.6142C2.09808 25.041 2.88821 27.1292 4.46845 28.653C5.99226 30.1203 8.02401 30.854 10.3379 30.854H21.8512C24.278 30.854 26.3097 30.0639 27.7771 28.653C29.3009 27.1856 30.091 25.0974 30.091 22.6706V11.0445C30.091 8.67413 29.3009 6.64239 27.8335 5.17502ZM27.6078 22.6706C27.6078 24.4202 26.987 25.8311 25.9711 26.7905C24.9552 27.75 23.5443 28.2579 21.8512 28.2579H10.3379C8.64482 28.2579 7.23389 27.75 6.21801 26.7905C5.20214 25.7747 4.6942 24.3637 4.6942 22.6142V11.0445C4.6942 9.35138 5.20214 7.94045 6.21801 6.92458C7.17745 5.96514 8.64482 5.4572 10.3379 5.4572H21.964C23.6572 5.4572 25.0681 5.96514 26.084 6.98101C27.0434 7.99689 27.6078 9.40782 27.6078 11.0445V22.6706Z" fill="white"/>
</svg>
