<svg width="33" height="33" viewBox="0 0 33 33" fill="none" xmlns="http://www.w3.org/2000/svg">
<path d="M3.7622 11.7677H9.38788V28.6972H3.7622V11.7677ZM6.6127 3.60693C4.68726 3.60693 3.42932 4.871 3.42932 6.53012C3.42932 8.15512 4.65045 9.45593 6.53907 9.45593H6.57495C8.5372 9.45593 9.7592 8.15506 9.7592 6.53012C9.72238 4.871 8.53726 3.60693 6.6127 3.60693ZM23.2005 11.37C20.2143 11.37 18.8765 13.0125 18.1302 14.1644V11.7677H12.5028C12.5773 13.3559 12.5028 28.6972 12.5028 28.6972H18.1302V19.2426C18.1302 18.7362 18.167 18.2317 18.3151 17.8689C18.7225 16.8581 19.6484 15.8112 21.2014 15.8112C23.2391 15.8112 24.0528 17.3644 24.0528 19.6392V28.6971H29.6793V18.9894C29.6793 13.7895 26.9042 11.37 23.2005 11.37Z" fill="white"/>
</svg>
