<svg width="253" height="64" viewBox="0 0 253 64" fill="none" xmlns="http://www.w3.org/2000/svg">
<g clip-path="url(#clip0_174_80)">
<path d="M0.434387 31.997L32.4314 63.9941L64.4285 31.997L32.4314 0L0.434387 31.997ZM32.4314 62.5169L1.91163 31.997L32.4314 1.47724L62.9512 31.997L32.4314 62.5169Z" fill="white"/>
<path d="M13.1209 38.2074V25.7985L6.9165 32.0029L13.1209 38.2074ZM12.075 35.6842L8.39374 32.0029L12.075 28.3217V35.6901V35.6842Z" fill="white"/>
<path d="M51.7478 25.7926V38.2014L57.9522 31.997L51.7478 25.7926ZM52.7937 28.3157L56.475 31.997L52.7937 35.6842V28.3157Z" fill="white"/>
<path d="M26.227 12.6865H38.6358L32.4314 6.48212L26.227 12.6865ZM28.7501 11.6406L32.4314 7.95936L36.1186 11.6406H28.7501Z" fill="white"/>
<path d="M32.4314 57.5179L38.6358 51.3135H26.227L32.4314 57.5179ZM32.4314 56.0406L28.7501 52.3594H36.1186L32.4314 56.0406Z" fill="white"/>
<path d="M16.2822 22.6313V41.3628L23.0657 48.1462H41.7971L48.5806 41.3628V22.6313L41.7971 15.8478H23.0657L16.2822 22.6313ZM41.3717 16.8878L47.5466 23.0627V40.9314L41.3717 47.1063H23.503L17.3281 40.9314V23.0627L23.503 16.8878H41.3717Z" fill="white"/>
<path d="M37.525 25.1249C32.916 25.1249 30.5997 28.558 30.5997 32.003C30.5997 33.5275 31.0605 35.052 31.9823 36.287C31.2496 37.4806 29.9438 38.4437 28.2124 38.4437C24.0466 38.4437 21.7539 34.5438 21.7539 31.0221C21.7539 28.0853 23.3375 25.4086 26.7234 25.4086C27.6629 25.4086 29.0988 25.6508 29.796 26.5372C29.9083 26.7263 29.9438 26.8385 29.9438 26.9508C29.9438 27.4235 29.022 27.329 29.022 28.3276C29.022 28.8594 29.4356 29.1549 29.8492 29.1549C30.3337 29.1549 30.8656 28.759 30.8656 27.8785C30.8656 25.8813 28.4724 25.2195 26.8002 25.2195C23.503 25.2195 20.4126 27.8194 20.4126 32.003C20.4126 35.4302 22.7466 38.881 27.3438 38.881C29.9083 38.881 31.1787 37.7169 32.0414 36.3697C33.1819 37.8528 35.0196 38.881 37.525 38.881C42.1399 38.881 44.4562 35.4302 44.4562 32.003C44.4562 28.5758 42.1399 25.1249 37.525 25.1249ZM38.2577 38.5915C34.1687 38.5915 31.876 34.6147 31.876 31.0398C31.876 28.1031 33.4182 25.4086 36.81 25.4086C40.899 25.4086 43.1798 29.3853 43.1798 32.9602C43.1798 35.897 41.6376 38.5915 38.2577 38.5915Z" fill="white"/>
<path d="M86.1734 25.0836L90.5047 34.2366L94.2864 25.0836H94.4814L96.26 25.0659V25.2254C95.7282 25.2786 95.4505 25.4913 95.3087 25.7513V34.8334L95.3264 35.3593C95.3441 35.8143 95.9232 35.9561 96.2778 35.9561V36.1334H92.9688V35.9561C93.2878 35.9561 93.8137 35.8497 93.9201 35.4834V26.6967L90.0143 36.1334H89.7129L85.2753 26.5076V35.3593C85.2753 35.8143 86.0671 35.9561 86.4216 35.9561V36.1334H83.8512V35.9561C84.1998 35.9561 84.9798 35.8143 84.9798 35.3593V25.8872C84.6962 25.379 84.448 25.2549 83.798 25.2549V25.0777H86.1734V25.0836Z" fill="white"/>
<path d="M97.8141 29.6394C97.7077 29.1844 97.2527 29.1667 96.8982 29.1667V28.9717H99.2204V34.4434L99.2381 35.1997C99.2559 35.7256 99.4863 35.9738 99.7286 35.9738C99.959 35.9738 100.189 35.7611 100.272 35.3238H100.432C100.343 36.1156 99.7818 36.3106 99.0786 36.3106C98.2513 36.3106 97.8673 35.7847 97.8259 34.7625V31.873C97.8436 29.8462 97.8436 30.0412 97.8082 29.6394H97.8141ZM98.4641 25.9108C98.9959 25.9108 99.3622 26.2654 99.3622 26.809C99.3622 27.3526 98.9959 27.7072 98.4641 27.7072C97.9323 27.7072 97.5659 27.3526 97.5659 26.809C97.5659 26.2654 97.9145 25.9108 98.4641 25.9108Z" fill="white"/>
<path d="M101.726 29.6571C101.619 29.2021 101.164 29.1844 100.81 29.1844V29.0071H103.132V31.2584C103.558 30.0294 104.343 28.8121 105.703 28.7235C106.778 28.6526 108.184 29.3026 108.184 31.3825V35.1997C108.202 35.7256 108.432 35.9738 108.675 35.9738C108.905 35.9738 109.147 35.761 109.236 35.3238H109.396C109.307 36.1156 108.728 36.3106 108.043 36.3106C107.109 36.3106 106.743 35.6606 106.772 34.4256V31.5243C106.772 29.5153 105.874 28.9894 105.135 29.1489C104.184 29.3616 103.499 30.7325 103.126 32.0384V35.3651C103.126 35.8201 103.564 35.962 103.918 35.962V36.1392H100.958V35.962C101.312 35.962 101.732 35.8201 101.732 35.3651V31.8966C101.749 29.8757 101.749 30.0648 101.714 29.663L101.726 29.6571Z" fill="white"/>
<path d="M116.498 34.4434V35.1997C116.516 35.7256 116.746 35.9738 116.989 35.9738C117.219 35.9738 117.467 35.7611 117.55 35.3238H117.71C117.621 36.1156 117.042 36.3106 116.339 36.3106C115.635 36.3106 115.246 35.9029 115.121 35.1465C114.696 35.7256 114.016 36.2397 113.183 36.2751C110.861 36.3992 109.715 34.9043 109.715 32.5466C109.715 30.1889 110.843 29.0426 112.651 28.8358C113.745 28.6939 114.625 29.2553 115.08 29.9112V27.9908C115.098 25.964 115.098 26.159 115.062 25.7572C114.956 25.3022 114.501 25.2845 114.146 25.2845V25.0895H116.469V28.0262L116.486 34.4493L116.498 34.4434ZM115.092 30.6085C114.702 29.728 113.963 28.8653 112.663 29.078C110.43 29.4326 110.483 36.3283 113.437 36.0152C114.016 35.962 114.69 35.4183 115.092 34.6265V30.6144V30.6085Z" fill="white"/>
<path d="M123.099 34.7979C123.205 32.4934 118.295 33.8466 118.295 30.8035C118.295 29.3971 119.547 28.7235 120.865 28.7235C121.799 28.7235 123.329 28.9717 123.89 30.8035L122.602 31.0694C122.425 29.5389 121.497 28.954 120.682 28.9776C119.961 28.9953 118.868 29.3853 118.868 30.2776C118.868 32.3516 123.884 30.9807 123.884 34.2366C123.884 35.6961 122.425 36.4347 121.066 36.3993C119.73 36.3638 117.881 35.8734 117.952 33.7934L119.151 33.9529C119.116 33.9884 119.063 36.2043 121.32 36.2043C122.005 36.2043 123.045 35.8497 123.099 34.7979Z" fill="white"/>
<path d="M125.958 31.6839C125.923 31.9498 125.888 32.1921 125.888 32.4402C125.834 34.2188 126.573 35.8202 128.405 35.8379C130.237 35.8556 132.21 34.2897 133.156 31.5421L133.191 29.2553C132.789 29.273 132.399 29.3085 131.992 29.3439V28.8535C132.393 28.8889 132.783 28.9421 133.191 28.9598L133.209 27.7603L134.58 27.0749L134.562 29.013C135.141 28.9776 135.726 28.9067 136.305 28.8535V29.3439C135.726 29.2908 135.141 29.2198 134.544 29.2021L134.491 34.0238C134.473 35.0106 134.686 36.0683 135.549 36.0152C136.075 35.962 136.447 35.507 136.642 34.922L136.784 35.0815C136.518 35.7138 136.116 36.2456 135.129 36.2811C133.794 36.3165 133.108 35.3474 133.12 34.0652L133.138 32.2511C132.169 34.6797 130.183 36.1392 128.157 36.1392C126.13 36.1392 124.387 34.6797 124.387 32.5643C124.387 30.4489 125.74 28.8653 127.855 28.7944C129.474 28.7412 130.934 29.5862 131.182 31.2762C131.2 31.3825 131.129 31.4889 131.005 31.4889L125.953 31.6839H125.958ZM129.728 31.2939C129.817 30.4135 129.321 29.0071 127.914 29.1135C126.803 29.2021 126.207 30.2775 125.994 31.4534L129.728 31.2939Z" fill="white"/>
<path d="M141.635 23.9904H142.125V37.8942H141.635V23.9904Z" fill="white"/>
<path d="M156.106 35.117C155.137 36.0684 153.341 36.2811 152.253 36.2811C149.405 36.2811 147.272 34.2248 147.272 30.703C147.272 27.1813 149.334 24.9122 152.218 24.9122C153.429 24.9122 154.771 25.1959 155.757 25.9522L155.775 28.2567L155.509 28.2744C155.438 26.2654 153.66 25.0363 152.218 25.125C149.24 25.3022 148.803 28.8771 148.82 30.8803C148.838 32.9012 149.825 35.8615 152.253 36.0388C153.081 36.092 154.067 35.9502 154.824 35.3179L154.93 32.7652V32.2925C154.93 31.3944 153.801 31.4475 153.453 31.4475V31.288H157.347V31.4475C156.992 31.4475 156.218 31.3944 156.218 32.2925V32.7652L156.112 35.1229L156.106 35.117Z" fill="white"/>
<path d="M158.275 29.6571C158.168 29.2021 157.713 29.1844 157.359 29.1844V29.0071H159.681V31.4711C159.841 30.3248 160.207 29.1844 161.282 28.9717C162.234 28.7767 163.41 29.3557 163.675 30.5907L162.423 31.3825C162.671 30.3425 162.192 29.1135 161.152 29.4089C159.835 29.7989 159.728 32.0325 159.675 33.3325V35.3533C159.675 35.8083 160.112 35.9501 160.467 35.9501V36.1274H157.512V35.9501C157.867 35.9501 158.286 35.8083 158.286 35.3533V31.8848C158.304 29.8639 158.304 30.053 158.269 29.6512L158.275 29.6571Z" fill="white"/>
<path d="M167.711 28.7944C169.88 28.7944 171.304 30.183 171.304 32.5289C171.304 34.8748 169.88 36.2752 167.729 36.2752C165.578 36.2752 164.101 34.9043 164.101 32.5466C164.101 30.189 165.525 28.7944 167.711 28.7944ZM165.531 32.8598C165.708 34.1834 166.34 36.2752 168.19 36.0093C170.039 35.7434 170.039 33.4743 169.862 32.1921C169.685 30.8744 169.283 28.7944 167.256 29.0781C165.247 29.3617 165.354 31.5421 165.531 32.8598Z" fill="white"/>
<path d="M178.891 29.0426V29.2021C178.59 29.2021 177.957 29.3439 178.064 29.8344L179.966 34.7802L181.763 30.118C182.135 29.149 181.113 29.2021 180.776 29.2021V29.0426H183.134V29.2021C182.643 29.273 182.413 29.078 181.869 30.5257L179.618 36.4052H179.245L177.272 31.4948L175.316 36.4052H174.944L172.462 30.2244C172.107 29.3617 171.582 29.2021 171.245 29.2021V29.0426H174.235V29.2021C173.933 29.2021 173.656 29.3439 173.756 29.8344L175.659 34.7802L177.118 31.1344L176.746 30.2185C176.391 29.3558 175.866 29.1962 175.535 29.1962V29.0367H178.879L178.891 29.0426Z" fill="white"/>
<path d="M183.547 29.2553C183.163 29.273 182.755 29.3085 182.365 29.3439V28.8535C182.75 28.8889 183.157 28.9421 183.547 28.9598L183.565 27.7603L184.954 27.0749L184.936 29.013C185.515 28.9776 186.1 28.9067 186.679 28.8535V29.3439C186.1 29.2908 185.515 29.2198 184.918 29.2021L184.865 34.0238C184.847 35.0106 185.06 36.0683 185.923 36.0152C186.927 35.9265 187.985 34.2188 188.599 32.9898V27.9908C188.617 25.964 188.617 26.159 188.582 25.7572C188.475 25.3022 188.02 25.2845 187.666 25.2845V25.0895H189.988V31.2171C190.408 29.988 191.188 28.753 192.523 28.6644C193.616 28.5935 195.04 29.3144 195.04 31.3943V35.2115C195.058 35.7374 195.288 35.9856 195.531 35.9856C195.761 35.9856 196.009 35.7729 196.092 35.3356H196.252C196.163 36.1274 195.584 36.3224 194.898 36.3224C193.965 36.3224 193.598 35.6724 193.634 34.4375V31.5362C193.634 29.5271 192.736 28.9126 191.979 29.0898C191.028 29.3026 190.36 30.7089 189.994 32.0266V35.3711C189.994 35.8261 190.431 35.9679 190.786 35.9679V36.1452H187.831V35.9679C188.186 35.9679 188.605 35.8261 188.605 35.3711V33.4152C187.92 34.7329 186.791 36.4051 185.509 36.2811C184.174 36.157 183.465 35.3474 183.488 34.0652L183.559 29.2612L183.547 29.2553Z" fill="white"/>
<path d="M201.109 23.9904H201.599V37.8942H201.109V23.9904Z" fill="white"/>
<path d="M207.744 35.3593V25.834C207.744 25.2018 207.148 25.2372 206.793 25.2372V25.0599H210.102V25.2372C209.748 25.2372 209.133 25.2018 209.133 25.834V35.3593C209.133 35.9915 209.748 35.9561 210.102 35.9561V36.1333H206.793V35.9561C207.142 35.9561 207.744 35.9915 207.744 35.3593Z" fill="white"/>
<path d="M211.514 29.6216C211.408 29.1666 210.953 29.1489 210.599 29.1489V28.9539H212.921V31.1698C213.323 30.0234 214.079 28.883 215.42 28.7944C216.318 28.7412 217.323 29.1666 217.565 30.6439C217.973 29.7103 218.694 28.883 219.905 28.8121C220.998 28.7412 222.139 29.3025 222.139 31.3825V35.1997C222.139 35.7256 222.387 35.9915 222.629 35.9915C222.871 35.9915 223.12 35.761 223.208 35.3238H223.368C223.279 36.0624 222.771 36.2929 222.115 36.2929C221.199 36.2929 220.744 35.6429 220.744 34.4611V31.5243C220.744 29.5153 220.112 29.078 219.373 29.2375C218.528 29.4148 217.967 30.2598 217.612 31.2111V35.3651C217.612 35.8201 218.038 35.962 218.387 35.962V36.1392H215.45V35.962C215.769 35.962 216.117 35.8556 216.206 35.5247V31.5302C216.206 29.5212 215.592 29.0839 214.883 29.2435C213.913 29.4562 213.263 30.7384 212.909 31.9911V35.3711C212.909 35.826 213.346 35.9679 213.701 35.9679V36.1451H210.74V35.9679C211.095 35.9679 211.514 35.826 211.514 35.3711V31.867C211.532 29.8462 211.532 30.0353 211.497 29.6335L211.514 29.6216Z" fill="white"/>
<path d="M224.632 29.6217C224.526 29.1667 224.071 29.1312 223.716 29.1312V28.954H226.039V30.2894C226.393 29.4798 227.303 28.7235 228.609 28.8476C230.565 29.0249 231.688 30.183 231.688 32.5466C231.688 34.7625 229.909 36.2279 228.03 36.2279C227.362 36.2279 226.659 36.0329 226.039 35.6311V39.2415C226.039 39.6965 226.476 39.8205 226.83 39.8205V40.0155H223.876V39.8205C224.225 39.8205 224.65 39.6965 224.65 39.2415V31.8493C224.668 29.8226 224.668 30.0353 224.632 29.6335V29.6217ZM226.039 34.532C226.039 35.4656 226.901 35.8497 227.64 35.9206C231.091 36.2397 230.967 29.4444 228.609 29.0899C227.079 28.8594 226.269 30.183 226.039 31.1994V34.5261V34.532Z" fill="white"/>
<path d="M234.512 36.222C233.437 36.222 232.403 35.6961 232.403 34.532C232.403 32.1034 237.224 32.8598 237.207 30.833C237.207 29.4621 236.574 28.9126 235.605 29.0012C234.163 29.1253 233.933 30.443 233.933 31.1462H232.751C232.751 29.8639 234.004 28.6998 235.901 28.8062C237.047 28.8594 238.595 29.3853 238.595 31.678V35.1997C238.595 35.7256 238.861 35.9915 239.139 35.9915C239.405 35.9915 239.682 35.7611 239.771 35.3238H239.931C239.842 36.027 239.316 36.346 238.666 36.346C237.927 36.346 237.171 35.8733 237.207 34.7624C236.752 35.767 235.605 36.222 234.512 36.222ZM237.207 31.5066C237.207 32.3161 233.72 32.6175 233.72 34.4256C233.72 35.1997 234.353 35.8142 235.127 35.7611C236.379 35.6724 237.201 34.7388 237.201 33.8229V31.5007L237.207 31.5066Z" fill="white"/>
<path d="M247.772 32.8066C247.4 34.3548 245.71 36.1334 243.494 36.1334C241.467 36.1334 239.866 34.6738 239.866 32.5584C239.866 31.4653 240.114 30.5494 240.799 29.8639C241.467 29.1608 242.276 28.7885 243.263 28.7885C245.325 28.7885 246.519 30.1417 246.891 31.1107L245.627 31.743C245.396 29.8935 244.675 28.9067 243.145 29.0131C241.384 29.1549 241.296 31.4239 241.349 32.6766C241.402 34.207 241.881 35.7375 243.689 35.7906C245.538 35.8261 247.104 34.2957 247.595 32.8007H247.772V32.8066Z" fill="white"/>
<path d="M248.729 29.2553C248.327 29.273 247.937 29.3085 247.53 29.3439V28.8535C247.931 28.8889 248.321 28.9421 248.729 28.9598L248.747 27.7603L250.118 27.0749L250.1 29.013C250.679 28.9776 251.264 28.9067 251.843 28.8535V29.3439C251.264 29.2908 250.679 29.2198 250.082 29.2021L250.029 34.0238C250.011 35.0106 250.224 36.0683 251.087 36.0152C251.613 35.962 251.985 35.507 252.18 34.922L252.322 35.0815C252.056 35.7138 251.654 36.2456 250.667 36.2811C249.332 36.3165 248.646 35.3474 248.658 34.0652L248.729 29.2612V29.2553Z" fill="white"/>
</g>
<defs>
<clipPath id="clip0_174_80">
<rect width="251.881" height="64" fill="white" transform="translate(0.434387)"/>
</clipPath>
</defs>
</svg>
