<svg width="201" height="109" viewBox="0 0 201 109" fill="none" xmlns="http://www.w3.org/2000/svg">
<g clip-path="url(#clip0_174_12)">
<path d="M62.2371 38.5175L100.21 76.5267L138.184 38.5175L100.217 0.508301L62.2441 38.5175H62.2371ZM100.21 74.7719L63.9903 38.5175L100.217 2.26311L136.438 38.5175L100.217 74.7719H100.21Z" fill="white"/>
<path d="M77.2932 45.8947V31.1543L69.93 38.5245L77.2932 45.8947ZM76.052 42.8975L71.6831 38.5245L76.052 34.1515V42.9045V42.8975Z" fill="white"/>
<path d="M123.135 31.1472V45.8876L130.498 38.5174L123.135 31.1472ZM124.376 34.1444L128.745 38.5174L124.376 42.8974V34.1444Z" fill="white"/>
<path d="M92.8542 15.5787H107.581L100.217 8.2085L92.8542 15.5787ZM95.8486 14.3363L100.217 9.96331L104.593 14.3363H95.8486Z" fill="white"/>
<path d="M100.217 68.8336L107.581 61.4634H92.8542L100.217 68.8336ZM100.217 67.0788L95.8486 62.7058H104.593L100.217 67.0788Z" fill="white"/>
<path d="M81.045 27.3921V49.6431L89.0954 57.7012H111.325L119.376 49.6431V27.3921L111.325 19.334H89.0954L81.045 27.3921ZM110.821 20.5694L118.149 27.9045V49.1307L110.821 56.4658H89.6144L82.2862 49.1307V27.9045L89.6144 20.5694H110.821Z" fill="white"/>
<path d="M106.255 30.354C100.785 30.354 98.0365 34.4322 98.0365 38.5244C98.0365 40.3354 98.5835 42.1463 99.6775 43.6134C98.8079 45.0312 97.2581 46.1754 95.2034 46.1754C90.2595 46.1754 87.5386 41.5427 87.5386 37.3592C87.5386 33.8706 89.418 30.6909 93.4363 30.6909C94.5513 30.6909 96.2553 30.9787 97.0828 32.0316C97.2161 32.2562 97.2581 32.3896 97.2581 32.523C97.2581 33.0845 96.1642 32.9722 96.1642 34.1584C96.1642 34.7902 96.6551 35.1411 97.1459 35.1411C97.721 35.1411 98.3521 34.6708 98.3521 33.625C98.3521 31.2525 95.512 30.4663 93.5274 30.4663C89.6144 30.4663 85.9468 33.5548 85.9468 38.5244C85.9468 42.5956 88.7168 46.6948 94.1726 46.6948C97.2161 46.6948 98.7238 45.312 99.7476 43.7116C101.101 45.4735 103.282 46.6948 106.255 46.6948C111.732 46.6948 114.481 42.5956 114.481 38.5244C114.481 34.4532 111.732 30.354 106.255 30.354ZM107.125 46.3509C102.272 46.3509 99.5513 41.6269 99.5513 37.3803C99.5513 33.8917 101.382 30.6909 105.407 30.6909C110.26 30.6909 112.966 35.4149 112.966 39.6615C112.966 43.1501 111.136 46.3509 107.125 46.3509Z" fill="white"/>
<path d="M3.03654 90.3968L8.1768 101.27L12.6649 90.3968H12.8963L15.0071 90.3757V90.5653C14.376 90.6284 14.0464 90.8811 13.8781 91.19V101.979L13.8991 102.603C13.9201 103.144 14.6074 103.312 15.0281 103.312V103.523H11.1011V103.312C11.4797 103.312 12.1039 103.186 12.2301 102.751V92.313L7.59475 103.523H7.2371L1.97062 92.0884V102.603C1.97062 103.144 2.91032 103.312 3.33107 103.312V103.523H0.280582V103.312C0.694327 103.312 1.61999 103.144 1.61999 102.603V91.3514C1.28339 90.7478 0.988857 90.6004 0.217468 90.6004V90.3898H3.03654V90.3968Z" fill="white"/>
<path d="M16.8514 95.8085C16.7252 95.2681 16.1852 95.247 15.7645 95.247V95.0154H18.5204V101.515L18.5414 102.414C18.5625 103.038 18.836 103.333 19.1235 103.333C19.397 103.333 19.6705 103.08 19.7687 102.561H19.958C19.8528 103.502 19.1866 103.733 18.3521 103.733C17.3703 103.733 16.9145 103.109 16.8654 101.894V98.4618C16.8865 96.0542 16.8865 96.2858 16.8444 95.8085H16.8514ZM17.6228 91.3794C18.2539 91.3794 18.6887 91.8005 18.6887 92.4463C18.6887 93.0921 18.2539 93.5132 17.6228 93.5132C16.9917 93.5132 16.5569 93.0921 16.5569 92.4463C16.5569 91.8005 16.9706 91.3794 17.6228 91.3794Z" fill="white"/>
<path d="M21.4938 95.8295C21.3675 95.289 20.8276 95.268 20.4068 95.268V95.0574H23.1628V97.7317C23.6677 96.2717 24.6004 94.8258 26.2133 94.7205C27.4896 94.6362 29.1586 95.4084 29.1586 97.8791V102.414C29.1796 103.038 29.4531 103.333 29.7406 103.333C30.0141 103.333 30.3016 103.08 30.4068 102.561H30.5961C30.491 103.502 29.8037 103.733 28.9903 103.733C27.8823 103.733 27.4475 102.961 27.4825 101.494V98.0476C27.4825 95.6611 26.4166 95.0363 25.54 95.2259C24.411 95.4786 23.5975 97.107 23.1558 98.6583V102.61C23.1558 103.151 23.6747 103.319 24.0954 103.319V103.53H20.5821V103.319C21.0029 103.319 21.5008 103.151 21.5008 102.61V98.4898C21.5218 96.0892 21.5218 96.3138 21.4797 95.8365L21.4938 95.8295Z" fill="white"/>
<path d="M39.0253 101.515V102.414C39.0464 103.038 39.3198 103.333 39.6074 103.333C39.8809 103.333 40.1754 103.081 40.2736 102.561H40.4629C40.3577 103.502 39.6705 103.733 38.836 103.733C38.0015 103.733 37.5386 103.249 37.3914 102.351C36.8865 103.038 36.08 103.649 35.0912 103.691C32.3353 103.839 30.9748 102.063 30.9748 99.2621C30.9748 96.4614 32.3142 95.0997 34.4601 94.854C35.7574 94.6855 36.8023 95.3524 37.3423 96.1315V93.8502C37.3633 91.4426 37.3633 91.6743 37.3213 91.197C37.195 90.6565 36.6551 90.6354 36.2343 90.6354V90.4038H38.9903V93.8924L39.0113 101.522L39.0253 101.515ZM37.3563 96.9598C36.8935 95.9139 36.0169 94.8891 34.4741 95.1418C31.8234 95.563 31.8865 103.754 35.3928 103.382C36.08 103.319 36.8795 102.673 37.3563 101.733V96.9668V96.9598Z" fill="white"/>
<path d="M46.8654 101.936C46.9917 99.1987 41.1642 100.806 41.1642 97.1912C41.1642 95.5207 42.6508 94.7205 44.2147 94.7205C45.3227 94.7205 47.1389 95.0153 47.8051 97.1912L46.2764 97.5071C46.066 95.6891 44.965 94.9942 43.9973 95.0223C43.1417 95.0433 41.8444 95.5066 41.8444 96.5665C41.8444 99.0303 47.7981 97.4018 47.7981 101.269C47.7981 103.003 46.066 103.881 44.4531 103.838C42.8682 103.796 40.6733 103.214 40.7574 100.743L42.181 100.932C42.1389 100.975 42.0758 103.607 44.7546 103.607C45.5681 103.607 46.8023 103.186 46.8654 101.936Z" fill="white"/>
<path d="M50.2525 98.2372C50.2105 98.5531 50.1684 98.8409 50.1684 99.1357C50.1053 101.248 50.9818 103.151 53.1558 103.172C55.3297 103.193 57.6719 101.333 58.7939 98.0688L58.836 95.3523C58.3591 95.3734 57.8963 95.4155 57.4124 95.4576V94.875C57.8893 94.9171 58.3521 94.9803 58.836 95.0013L58.857 93.5764L60.4839 92.7622L60.4629 95.0645C61.1502 95.0224 61.8444 94.9382 62.5316 94.875V95.4576C61.8444 95.3944 61.1501 95.3102 60.4419 95.2891L60.3788 101.017C60.3577 102.189 60.6102 103.445 61.634 103.382C62.2581 103.319 62.6999 102.779 62.9314 102.084L63.0997 102.273C62.7841 103.024 62.3072 103.656 61.1361 103.698C59.5513 103.74 58.7378 102.589 58.7518 101.066L58.7729 98.9111C57.6228 101.796 55.2666 103.53 52.8612 103.53C50.4559 103.53 48.3872 101.796 48.3872 99.2831C48.3872 96.7702 49.9931 94.889 52.5036 94.8048C54.425 94.7416 56.1572 95.7454 56.4517 97.7529C56.4727 97.8792 56.3886 98.0056 56.2413 98.0056L50.2455 98.2372H50.2525ZM54.7266 97.774C54.8318 96.7281 54.2427 95.0575 52.5737 95.1839C51.2553 95.2891 50.5471 96.5666 50.2946 97.9635L54.7266 97.774Z" fill="white"/>
<path d="M68.857 89.0981H69.4391V105.614H68.857V89.0981Z" fill="white"/>
<path d="M86.0309 102.315C84.8809 103.445 82.749 103.698 81.4587 103.698C78.0786 103.698 75.5471 101.255 75.5471 97.072C75.5471 92.8885 77.9945 90.1931 81.4166 90.1931C82.8542 90.1931 84.4461 90.53 85.6172 91.4285L85.6382 94.166L85.3227 94.1871C85.2385 91.8005 83.1277 90.3405 81.4166 90.4458C77.8823 90.6564 77.3633 94.903 77.3844 97.2826C77.4054 99.6831 78.5765 103.2 81.4587 103.41C82.4405 103.474 83.6116 103.305 84.5092 102.554L84.6354 99.5217V98.9601C84.6354 97.8932 83.296 97.9564 82.8823 97.9564V97.7669H87.5036V97.9564C87.0828 97.9564 86.1642 97.8932 86.1642 98.9601V99.5217L86.0379 102.322L86.0309 102.315Z" fill="white"/>
<path d="M88.6046 95.8297C88.4783 95.2892 87.9384 95.2682 87.5176 95.2682V95.0576H90.2736V97.9846C90.4629 96.6229 90.8977 95.2682 92.174 95.0155C93.303 94.7838 94.6985 95.4717 95.0141 96.9388L93.5274 97.8793C93.8219 96.6439 93.2539 95.1839 92.0197 95.5349C90.4559 95.9982 90.3297 98.6515 90.2666 100.196V102.596C90.2666 103.137 90.7855 103.305 91.2062 103.305V103.516H87.6999V103.305C88.1207 103.305 88.6186 103.137 88.6186 102.596V98.476C88.6396 96.0754 88.6396 96.3 88.5975 95.8227L88.6046 95.8297Z" fill="white"/>
<path d="M99.8037 94.8047C102.377 94.8047 104.067 96.4542 104.067 99.2409C104.067 102.027 102.377 103.691 99.8248 103.691C97.2722 103.691 95.519 102.063 95.519 99.2619C95.519 96.4612 97.209 94.8047 99.8037 94.8047ZM97.2161 99.6339C97.4264 101.206 98.1768 103.691 100.372 103.375C102.567 103.059 102.567 100.364 102.356 98.8408C102.146 97.2755 101.669 94.8047 99.2638 95.1416C96.8795 95.4785 97.0057 98.0686 97.2161 99.6339Z" fill="white"/>
<path d="M113.079 95.0995V95.2891C112.721 95.2891 111.971 95.4575 112.097 96.0401L114.355 101.915L116.487 96.3771C116.929 95.2259 115.715 95.2891 115.316 95.2891V95.0995H118.114V95.2891C117.532 95.3733 117.258 95.1417 116.613 96.8614L113.941 103.846H113.499L111.157 98.0125L108.836 103.846H108.394L105.449 96.5034C105.028 95.4786 104.404 95.2891 104.004 95.2891V95.0995H107.553V95.2891C107.195 95.2891 106.865 95.4575 106.985 96.0401L109.243 101.915L110.975 97.5844L110.533 96.4964C110.112 95.4716 109.488 95.2821 109.095 95.2821V95.0925H113.065L113.079 95.0995Z" fill="white"/>
<path d="M118.598 95.3524C118.142 95.3734 117.658 95.4155 117.195 95.4577V94.8751C117.651 94.9172 118.135 94.9803 118.598 95.0014L118.619 93.5765L120.267 92.7623L120.246 95.0646C120.933 95.0225 121.627 94.9382 122.314 94.8751V95.4577C121.627 95.3945 120.933 95.3103 120.224 95.2892L120.161 101.017C120.14 102.189 120.393 103.446 121.417 103.382C122.609 103.277 123.864 101.249 124.593 99.7885V93.8502C124.614 91.4426 124.614 91.6743 124.572 91.197C124.446 90.6565 123.906 90.6354 123.485 90.6354V90.4038H126.241V97.6828C126.739 96.2228 127.665 94.7557 129.25 94.6504C130.547 94.5662 132.237 95.4226 132.237 97.8933V102.428C132.258 103.052 132.532 103.347 132.819 103.347C133.093 103.347 133.387 103.095 133.485 102.575H133.675C133.569 103.516 132.882 103.747 132.069 103.747C130.961 103.747 130.526 102.975 130.568 101.508V98.0618C130.568 95.6753 129.502 94.9453 128.605 95.1558C127.476 95.4085 126.683 97.0791 126.248 98.6444V102.617C126.248 103.158 126.767 103.326 127.188 103.326V103.537H123.682V103.326C124.102 103.326 124.6 103.158 124.6 102.617V100.294C123.787 101.859 122.447 103.846 120.926 103.698C119.341 103.551 118.499 102.589 118.527 101.066L118.612 95.3594L118.598 95.3524Z" fill="white"/>
<path d="M139.439 89.0981H140.021V105.614H139.439V89.0981Z" fill="white"/>
<path d="M147.321 102.603V91.2882C147.321 90.5371 146.613 90.5792 146.192 90.5792V90.3687H150.119V90.5792C149.699 90.5792 148.969 90.5371 148.969 91.2882V102.603C148.969 103.354 149.699 103.312 150.119 103.312V103.523H146.192V103.312C146.606 103.312 147.321 103.354 147.321 102.603Z" fill="white"/>
<path d="M151.788 95.7874C151.662 95.2469 151.122 95.2259 150.701 95.2259V94.9942H153.457V97.6265C153.934 96.2647 154.832 94.91 156.424 94.8047C157.49 94.7415 158.682 95.2469 158.969 97.0017C159.453 95.8927 160.309 94.91 161.746 94.8258C163.044 94.7415 164.397 95.4084 164.397 97.8791V102.414C164.397 103.038 164.692 103.354 164.979 103.354C165.267 103.354 165.561 103.08 165.666 102.561H165.856C165.75 103.438 165.147 103.712 164.369 103.712C163.282 103.712 162.742 102.94 162.742 101.536V98.0476C162.742 95.6611 161.992 95.1416 161.115 95.3312C160.112 95.5417 159.446 96.5455 159.025 97.6756V102.61C159.025 103.151 159.53 103.319 159.944 103.319V103.53H156.459V103.319C156.837 103.319 157.251 103.193 157.356 102.8V98.0546C157.356 95.6681 156.627 95.1487 155.785 95.3382C154.635 95.5909 153.864 97.114 153.443 98.6021V102.617C153.443 103.158 153.962 103.326 154.383 103.326V103.537H150.87V103.326C151.29 103.326 151.788 103.158 151.788 102.617V98.4547C151.809 96.0541 151.809 96.2788 151.767 95.8014L151.788 95.7874Z" fill="white"/>
<path d="M167.363 95.7875C167.237 95.247 166.697 95.2049 166.276 95.2049V94.9943H169.032V96.5807C169.453 95.6191 170.533 94.7206 172.083 94.868C174.404 95.0786 175.736 96.4544 175.736 99.262C175.736 101.894 173.626 103.635 171.396 103.635C170.603 103.635 169.769 103.403 169.032 102.926V107.215C169.032 107.755 169.551 107.903 169.972 107.903V108.134H166.466V107.903C166.879 107.903 167.384 107.755 167.384 107.215V98.4338C167.405 96.0262 167.405 96.2789 167.363 95.8016V95.7875ZM169.032 101.621C169.032 102.73 170.056 103.186 170.933 103.27C175.028 103.649 174.881 95.5769 172.083 95.1558C170.267 94.882 169.306 96.4544 169.032 97.6617V101.613V101.621Z" fill="white"/>
<path d="M179.088 103.628C177.812 103.628 176.585 103.003 176.585 101.62C176.585 98.7356 182.307 99.634 182.286 97.2264C182.286 95.598 181.536 94.9452 180.386 95.0505C178.675 95.1979 178.401 96.7632 178.401 97.5985H176.999C176.999 96.0753 178.485 94.6925 180.736 94.8188C182.097 94.882 183.934 95.5067 183.934 98.2302V102.414C183.934 103.038 184.25 103.354 184.579 103.354C184.895 103.354 185.224 103.08 185.33 102.561H185.519C185.414 103.396 184.79 103.775 184.018 103.775C183.142 103.775 182.244 103.214 182.286 101.894C181.746 103.087 180.386 103.628 179.088 103.628ZM182.286 98.0266C182.286 98.9883 178.149 99.3462 178.149 101.494C178.149 102.414 178.899 103.144 179.818 103.08C181.304 102.975 182.279 101.866 182.279 100.778V98.0196L182.286 98.0266Z" fill="white"/>
<path d="M194.818 99.5709C194.376 101.41 192.37 103.523 189.741 103.523C187.335 103.523 185.435 101.789 185.435 99.2761C185.435 97.9776 185.729 96.8896 186.543 96.0753C187.335 95.2401 188.296 94.7979 189.467 94.7979C191.915 94.7979 193.331 96.4053 193.773 97.5564L192.272 98.3075C191.999 96.1104 191.143 94.9382 189.327 95.0646C187.237 95.233 187.132 97.9284 187.195 99.4165C187.258 101.234 187.826 103.052 189.972 103.116C192.167 103.158 194.025 101.34 194.607 99.5639H194.818V99.5709Z" fill="white"/>
<path d="M195.954 95.3523C195.477 95.3734 195.014 95.4155 194.53 95.4576V94.875C195.007 94.9171 195.47 94.9803 195.954 95.0013L195.975 93.5764L197.602 92.7622L197.581 95.0645C198.268 95.0224 198.962 94.9382 199.649 94.875V95.4576C198.962 95.3944 198.268 95.3102 197.56 95.2891L197.497 101.017C197.476 102.189 197.728 103.445 198.752 103.382C199.376 103.319 199.818 102.779 200.049 102.084L200.217 102.273C199.902 103.024 199.425 103.656 198.254 103.698C196.669 103.74 195.856 102.589 195.87 101.066L195.954 95.3593V95.3523Z" fill="white"/>
</g>
<defs>
<clipPath id="clip0_174_12">
<rect width="200" height="107.619" fill="white" transform="translate(0.217468 0.508301)"/>
</clipPath>
</defs>
</svg>
