<svg width="252" height="65" viewBox="0 0 252 65" fill="none" xmlns="http://www.w3.org/2000/svg">
<g clip-path="url(#clip0_174_42)">
<path d="M0.118591 32.527L32.1156 64.524L64.1127 32.527L32.1156 0.529907L0.118591 32.527ZM32.1156 63.0468L1.59583 32.527L32.1156 2.00715L62.6354 32.527L32.1156 63.0468Z" fill="#6F5B3E"/>
<path d="M12.8051 38.7373V26.3284L6.60071 32.5328L12.8051 38.7373ZM11.7592 36.2141L8.07795 32.5328L11.7592 28.8516V36.22V36.2141Z" fill="#6F5B3E"/>
<path d="M51.432 26.3225V38.7313L57.6364 32.5269L51.432 26.3225ZM52.4779 28.8456L56.1592 32.5269L52.4779 36.2141V28.8456Z" fill="#6F5B3E"/>
<path d="M25.9112 13.2164H38.32L32.1156 7.01202L25.9112 13.2164ZM28.4343 12.1706L32.1156 8.48927L35.8028 12.1706H28.4343Z" fill="#6F5B3E"/>
<path d="M32.1156 58.0478L38.32 51.8434H25.9112L32.1156 58.0478ZM32.1156 56.5706L28.4343 52.8893H35.8028L32.1156 56.5706Z" fill="#6F5B3E"/>
<path d="M15.9664 23.1612V41.8927L22.7499 48.6762H41.4813L48.2648 41.8927V23.1612L41.4813 16.3777H22.7499L15.9664 23.1612ZM41.0559 17.4177L47.2308 23.5926V41.4613L41.0559 47.6362H23.1872L17.0123 41.4613V23.5926L23.1872 17.4177H41.0559Z" fill="#6F5B3E"/>
<path d="M37.2092 25.6548C32.6002 25.6548 30.2839 29.088 30.2839 32.5329C30.2839 34.0574 30.7448 35.5819 31.6666 36.8169C30.9338 38.0105 29.628 38.9737 27.8966 38.9737C23.7308 38.9737 21.4381 35.0737 21.4381 31.552C21.4381 28.6152 23.0217 25.9385 26.4076 25.9385C27.3471 25.9385 28.783 26.1807 29.4802 27.0671C29.5925 27.2562 29.628 27.3684 29.628 27.4807C29.628 27.9534 28.7062 27.8589 28.7062 28.8575C28.7062 29.3893 29.1198 29.6848 29.5334 29.6848C30.018 29.6848 30.5498 29.2889 30.5498 28.4084C30.5498 26.4112 28.1566 25.7494 26.4844 25.7494C23.1872 25.7494 20.0968 28.3493 20.0968 32.5329C20.0968 35.9601 22.4308 39.4109 27.028 39.4109C29.5925 39.4109 30.8629 38.2469 31.7256 36.8996C32.8661 38.3828 34.7038 39.4109 37.2092 39.4109C41.8241 39.4109 44.1404 35.9601 44.1404 32.5329C44.1404 29.1057 41.8241 25.6548 37.2092 25.6548ZM37.9419 39.1214C33.8529 39.1214 31.5602 35.1446 31.5602 31.5697C31.5602 28.633 33.1024 25.9385 36.4942 25.9385C40.5832 25.9385 42.864 29.9152 42.864 33.4901C42.864 36.4269 41.3218 39.1214 37.9419 39.1214Z" fill="#6F5B3E"/>
<path d="M85.8576 25.6135L90.1889 34.7665L93.9707 25.6135H94.1656L95.9442 25.5958V25.7553C95.4124 25.8085 95.1347 26.0212 94.9929 26.2812V35.3633L95.0106 35.8892C95.0284 36.3442 95.6074 36.486 95.962 36.486V36.6633H92.653V36.486C92.972 36.486 93.4979 36.3796 93.6043 36.0133V27.2266L89.6985 36.6633H89.3971L84.9595 27.0376V35.8892C84.9595 36.3442 85.7513 36.486 86.1058 36.486V36.6633H83.5354V36.486C83.884 36.486 84.664 36.3442 84.664 35.8892V26.4171C84.3804 25.9089 84.1322 25.7849 83.4822 25.7849V25.6076H85.8576V25.6135Z" fill="#333132"/>
<path d="M97.4983 30.1693C97.3919 29.7143 96.9369 29.6966 96.5824 29.6966V29.5016H98.9046V34.9733L98.9224 35.7296C98.9401 36.2555 99.1705 36.5037 99.4128 36.5037C99.6432 36.5037 99.8737 36.291 99.9564 35.8537H100.116C100.027 36.6455 99.466 36.8405 98.7628 36.8405C97.9356 36.8405 97.5515 36.3146 97.5101 35.2924V32.4029C97.5278 30.3761 97.5278 30.5711 97.4924 30.1693H97.4983ZM98.1483 26.4407C98.6801 26.4407 99.0464 26.7953 99.0464 27.3389C99.0464 27.8825 98.6801 28.2371 98.1483 28.2371C97.6165 28.2371 97.2501 27.8825 97.2501 27.3389C97.2501 26.7953 97.5987 26.4407 98.1483 26.4407Z" fill="#333132"/>
<path d="M101.41 30.187C101.304 29.732 100.849 29.7143 100.494 29.7143V29.537H102.816V31.7883C103.242 30.5593 104.028 29.342 105.387 29.2534C106.462 29.1825 107.869 29.8325 107.869 31.9124V35.7296C107.886 36.2555 108.117 36.5037 108.359 36.5037C108.589 36.5037 108.832 36.291 108.92 35.8537H109.08C108.991 36.6455 108.412 36.8405 107.727 36.8405C106.793 36.8405 106.427 36.1905 106.456 34.9555V32.0542C106.456 30.0452 105.558 29.5193 104.82 29.6788C103.868 29.8915 103.183 31.2624 102.81 32.5683V35.8951C102.81 36.35 103.248 36.4919 103.602 36.4919V36.6691H100.642V36.4919C100.996 36.4919 101.416 36.35 101.416 35.8951V32.4265C101.434 30.4056 101.434 30.5947 101.398 30.1929L101.41 30.187Z" fill="#333132"/>
<path d="M116.182 34.9733V35.7296C116.2 36.2555 116.431 36.5037 116.673 36.5037C116.903 36.5037 117.152 36.291 117.234 35.8537H117.394C117.305 36.6455 116.726 36.8405 116.023 36.8405C115.32 36.8405 114.93 36.4328 114.806 35.6764C114.38 36.2555 113.701 36.7696 112.868 36.8051C110.545 36.9291 109.399 35.4342 109.399 33.0765C109.399 30.7188 110.528 29.5725 112.336 29.3657C113.429 29.2239 114.309 29.7852 114.764 30.4411V28.5207C114.782 26.4939 114.782 26.6889 114.747 26.2871C114.64 25.8321 114.185 25.8144 113.831 25.8144V25.6194H116.153V28.5561L116.171 34.9792L116.182 34.9733ZM114.776 31.1384C114.386 30.2579 113.648 29.3952 112.348 29.6079C110.114 29.9625 110.167 36.8582 113.122 36.5451C113.701 36.4919 114.374 35.9483 114.776 35.1565V31.1443V31.1384Z" fill="#333132"/>
<path d="M122.783 35.3278C122.889 33.0233 117.979 34.3765 117.979 31.3334C117.979 29.927 119.231 29.2534 120.549 29.2534C121.483 29.2534 123.013 29.5016 123.575 31.3334L122.286 31.5993C122.109 30.0689 121.181 29.4839 120.366 29.5075C119.645 29.5252 118.552 29.9152 118.552 30.8075C118.552 32.8815 123.569 31.5106 123.569 34.7665C123.569 36.226 122.109 36.9646 120.75 36.9292C119.415 36.8937 117.565 36.4033 117.636 34.3233L118.836 34.4829C118.8 34.5183 118.747 36.7342 121.004 36.7342C121.69 36.7342 122.73 36.3796 122.783 35.3278Z" fill="#333132"/>
<path d="M125.643 32.2138C125.607 32.4797 125.572 32.722 125.572 32.9701C125.519 34.7487 126.257 36.3501 128.089 36.3678C129.921 36.3855 131.894 34.8196 132.84 32.072L132.875 29.7852C132.473 29.8029 132.083 29.8384 131.676 29.8738V29.3834C132.078 29.4189 132.468 29.472 132.875 29.4898L132.893 28.2902L134.264 27.6048L134.246 29.5429C134.825 29.5075 135.41 29.4366 135.989 29.3834V29.8738C135.41 29.8207 134.825 29.7498 134.228 29.732L134.175 34.5537C134.158 35.5405 134.37 36.5982 135.233 36.5451C135.759 36.4919 136.131 36.0369 136.326 35.4519L136.468 35.6114C136.202 36.2437 135.8 36.7755 134.813 36.811C133.478 36.8464 132.793 35.8774 132.804 34.5951L132.822 32.7811C131.853 35.2096 129.868 36.6692 127.841 36.6692C125.814 36.6692 124.071 35.2096 124.071 33.0942C124.071 30.9788 125.424 29.3952 127.539 29.3243C129.159 29.2711 130.618 30.1161 130.866 31.8061C130.884 31.9124 130.813 32.0188 130.689 32.0188L125.637 32.2138H125.643ZM129.413 31.8238C129.501 30.9434 129.005 29.537 127.599 29.6434C126.488 29.732 125.891 30.8075 125.678 31.9833L129.413 31.8238Z" fill="#333132"/>
<path d="M141.319 24.5203H141.81V38.4241H141.319V24.5203Z" fill="#333132"/>
<path d="M155.79 35.6469C154.821 36.5983 153.025 36.811 151.938 36.811C149.089 36.811 146.956 34.7547 146.956 31.2329C146.956 27.7112 149.019 25.4421 151.902 25.4421C153.113 25.4421 154.455 25.7258 155.442 26.4821L155.459 28.7866L155.193 28.8043C155.123 26.7953 153.344 25.5662 151.902 25.6549C148.924 25.8321 148.487 29.4071 148.505 31.4102C148.522 33.4311 149.509 36.3915 151.938 36.5687C152.765 36.6219 153.752 36.4801 154.508 35.8478L154.614 33.2952V32.8224C154.614 31.9243 153.486 31.9775 153.137 31.9775V31.8179H157.031V31.9775C156.677 31.9775 155.903 31.9243 155.903 32.8224V33.2952L155.796 35.6528L155.79 35.6469Z" fill="#333132"/>
<path d="M157.959 30.187C157.852 29.732 157.398 29.7143 157.043 29.7143V29.537H159.365V32.0011C159.525 30.8547 159.891 29.7143 160.967 29.5016C161.918 29.3066 163.094 29.8856 163.36 31.1206L162.107 31.9124C162.355 30.8724 161.876 29.6434 160.837 29.9388C159.519 30.3288 159.412 32.5624 159.359 33.8624V35.8832C159.359 36.3382 159.797 36.48 160.151 36.48V36.6573H157.197V36.48C157.551 36.48 157.971 36.3382 157.971 35.8832V32.4147C157.988 30.3938 157.988 30.5829 157.953 30.1811L157.959 30.187Z" fill="#333132"/>
<path d="M167.395 29.3243C169.564 29.3243 170.988 30.7129 170.988 33.0588C170.988 35.4047 169.564 36.8051 167.413 36.8051C165.262 36.8051 163.785 35.4342 163.785 33.0765C163.785 30.7189 165.209 29.3243 167.395 29.3243ZM165.215 33.3897C165.392 34.7133 166.025 36.8051 167.874 36.5392C169.724 36.2733 169.724 34.0042 169.546 32.722C169.369 31.4043 168.967 29.3243 166.94 29.608C164.931 29.8916 165.038 32.072 165.215 33.3897Z" fill="#333132"/>
<path d="M178.575 29.5725V29.732C178.274 29.732 177.642 29.8739 177.748 30.3643L179.651 35.3101L181.447 30.6479C181.819 29.6789 180.797 29.732 180.46 29.732V29.5725H182.818V29.732C182.327 29.8029 182.097 29.608 181.553 31.0556L179.302 36.9351H178.93L176.956 32.0247L175 36.9351H174.628L172.146 30.7543C171.792 29.8916 171.266 29.732 170.929 29.732V29.5725H173.919V29.732C173.618 29.732 173.34 29.8739 173.44 30.3643L175.343 35.3101L176.803 31.6643L176.43 30.7484C176.076 29.8857 175.55 29.7261 175.219 29.7261V29.5666H178.563L178.575 29.5725Z" fill="#333132"/>
<path d="M183.231 29.7852C182.847 29.8029 182.44 29.8384 182.05 29.8738V29.3834C182.434 29.4189 182.841 29.472 183.231 29.4898L183.249 28.2902L184.638 27.6048L184.62 29.5429C185.199 29.5075 185.784 29.4366 186.363 29.3834V29.8738C185.784 29.8207 185.199 29.7498 184.602 29.732L184.549 34.5537C184.531 35.5405 184.744 36.5982 185.607 36.5451C186.611 36.4564 187.669 34.7487 188.284 33.5197V28.5207C188.301 26.4939 188.301 26.6889 188.266 26.2871C188.16 25.8321 187.705 25.8144 187.35 25.8144V25.6194H189.672V31.747C190.092 30.5179 190.872 29.2829 192.207 29.1943C193.3 29.1234 194.724 29.8443 194.724 31.9243V35.7414C194.742 36.2673 194.973 36.5155 195.215 36.5155C195.445 36.5155 195.693 36.3028 195.776 35.8655H195.936C195.847 36.6573 195.268 36.8523 194.583 36.8523C193.649 36.8523 193.283 36.2023 193.318 34.9674V32.0661C193.318 30.057 192.42 29.4425 191.664 29.6198C190.712 29.8325 190.044 31.2388 189.678 32.5565V35.901C189.678 36.356 190.115 36.4978 190.47 36.4978V36.6751H187.515V36.4978C187.87 36.4978 188.29 36.356 188.29 35.901V33.9451C187.604 35.2628 186.475 36.9351 185.193 36.811C183.858 36.6869 183.149 35.8774 183.172 34.5951L183.243 29.7911L183.231 29.7852Z" fill="#333132"/>
<path d="M200.793 24.5203H201.283V38.4241H200.793V24.5203Z" fill="#333132"/>
<path d="M207.429 35.8892V26.3639C207.429 25.7317 206.832 25.7671 206.477 25.7671V25.5898H209.786V25.7671C209.432 25.7671 208.817 25.7317 208.817 26.3639V35.8892C208.817 36.5214 209.432 36.486 209.786 36.486V36.6632H206.477V36.486C206.826 36.486 207.429 36.5214 207.429 35.8892Z" fill="#333132"/>
<path d="M211.199 30.1515C211.092 29.6966 210.637 29.6788 210.283 29.6788V29.4838H212.605V31.6997C213.007 30.5533 213.763 29.4129 215.104 29.3243C216.003 29.2711 217.007 29.6965 217.249 31.1738C217.657 30.2402 218.378 29.4129 219.589 29.342C220.682 29.2711 221.823 29.8325 221.823 31.9124V35.7296C221.823 36.2555 222.071 36.5214 222.313 36.5214C222.556 36.5214 222.804 36.291 222.892 35.8537H223.052C222.963 36.5923 222.455 36.8228 221.799 36.8228C220.883 36.8228 220.428 36.1728 220.428 34.991V32.0542C220.428 30.0452 219.796 29.6079 219.058 29.7675C218.213 29.9447 217.651 30.7897 217.297 31.7411V35.8951C217.297 36.35 217.722 36.4919 218.071 36.4919V36.6691H215.134V36.4919C215.453 36.4919 215.802 36.3855 215.89 36.0546V32.0601C215.89 30.0511 215.276 29.6138 214.567 29.7734C213.598 29.9861 212.948 31.2683 212.593 32.521V35.901C212.593 36.356 213.03 36.4978 213.385 36.4978V36.675H210.425V36.4978C210.779 36.4978 211.199 36.356 211.199 35.901V32.3969C211.216 30.3761 211.216 30.5652 211.181 30.1634L211.199 30.1515Z" fill="#333132"/>
<path d="M224.317 30.1516C224.21 29.6966 223.755 29.6611 223.401 29.6611V29.4839H225.723V30.8193C226.077 30.0098 226.987 29.2534 228.293 29.3775C230.249 29.5548 231.372 30.7129 231.372 33.0765C231.372 35.2924 229.593 36.7578 227.714 36.7578C227.046 36.7578 226.343 36.5628 225.723 36.161V39.7714C225.723 40.2264 226.16 40.3504 226.515 40.3504V40.5454H223.56V40.3504C223.909 40.3504 224.334 40.2264 224.334 39.7714V32.3793C224.352 30.3525 224.352 30.5652 224.317 30.1634V30.1516ZM225.723 35.0619C225.723 35.9955 226.586 36.3796 227.324 36.4505C230.775 36.7696 230.651 29.9743 228.293 29.6198C226.763 29.3893 225.953 30.7129 225.723 31.7293V35.056V35.0619Z" fill="#333132"/>
<path d="M234.196 36.7519C233.121 36.7519 232.087 36.226 232.087 35.0619C232.087 32.6333 236.909 33.3897 236.891 31.3629C236.891 29.992 236.259 29.4425 235.289 29.5311C233.848 29.6552 233.617 30.9729 233.617 31.6761H232.435C232.435 30.3938 233.688 29.2297 235.585 29.3361C236.731 29.3893 238.279 29.9152 238.279 32.2079V35.7296C238.279 36.2555 238.545 36.5214 238.823 36.5214C239.089 36.5214 239.367 36.291 239.455 35.8537H239.615C239.526 36.5569 239 36.8759 238.35 36.8759C237.612 36.8759 236.855 36.4032 236.891 35.2923C236.436 36.2969 235.289 36.7519 234.196 36.7519ZM236.891 32.0365C236.891 32.846 233.404 33.1474 233.404 34.9555C233.404 35.7296 234.037 36.3441 234.811 36.291C236.064 36.2023 236.885 35.2687 236.885 34.3528V32.0306L236.891 32.0365Z" fill="#333132"/>
<path d="M247.456 33.3365C247.084 34.8847 245.394 36.6633 243.178 36.6633C241.151 36.6633 239.55 35.2037 239.55 33.0883C239.55 31.9952 239.798 31.0793 240.483 30.3939C241.151 29.6907 241.961 29.3184 242.947 29.3184C245.01 29.3184 246.203 30.6716 246.576 31.6406L245.311 32.2729C245.081 30.4234 244.36 29.4366 242.829 29.543C241.068 29.6848 240.98 31.9538 241.033 33.2065C241.086 34.7369 241.565 36.2674 243.373 36.3205C245.222 36.356 246.788 34.8256 247.279 33.3306H247.456V33.3365Z" fill="#333132"/>
<path d="M248.413 29.7852C248.011 29.8029 247.621 29.8384 247.214 29.8738V29.3834C247.616 29.4189 248.006 29.472 248.413 29.4898L248.431 28.2902L249.802 27.6048L249.784 29.5429C250.363 29.5075 250.948 29.4366 251.527 29.3834V29.8738C250.948 29.8207 250.363 29.7498 249.766 29.732L249.713 34.5537C249.695 35.5405 249.908 36.5982 250.771 36.5451C251.297 36.4919 251.669 36.0369 251.864 35.4519L252.006 35.6114C251.74 36.2437 251.338 36.7755 250.351 36.811C249.016 36.8464 248.331 35.8774 248.342 34.5951L248.413 29.7911V29.7852Z" fill="#333132"/>
</g>
<defs>
<clipPath id="clip0_174_42">
<rect width="251.881" height="64" fill="white" transform="translate(0.118591 0.529907)"/>
</clipPath>
</defs>
</svg>
