<svg width="80" height="81" viewBox="0 0 80 81" fill="none" xmlns="http://www.w3.org/2000/svg">
<g clip-path="url(#clip0_62_13)">
<path d="M0 71.6191H28.2812V76.3066H18.9062V80.9941H61.0938V76.3066H51.7188V71.6191H80V0.994141H0V71.6191ZM47.0312 76.3066H32.9688V71.6191H47.0312V76.3066ZM4.6875 66.9316V62.0879H75.3125V66.9316H4.6875ZM75.3125 5.68164V57.4004H4.6875V5.68164H75.3125Z" fill="#6F5B3E"/>
<path d="M23.5938 40.9941C23.5938 47.4559 28.8507 52.7129 35.3125 52.7129C40.3265 52.7129 44.6832 49.533 46.33 44.9926L56.4062 47.5115V52.7129H61.0938V10.5254H56.4062V15.7268L18.9062 25.1018V38.1365L23.5938 39.3083V40.9941ZM35.3125 48.0254C31.4355 48.0254 28.2812 44.8711 28.2812 40.9941V40.4802L41.7413 43.8451C40.6409 46.3262 38.1525 48.0254 35.3125 48.0254ZM23.5938 28.7615L56.4062 20.5583V42.6793L23.5938 34.4762V28.7615Z" fill="#6F5B3E"/>
</g>
<defs>
<clipPath id="clip0_62_13">
<rect width="80" height="80" fill="white" transform="translate(0 0.994141)"/>
</clipPath>
</defs>
</svg>
