<svg width="80" height="81" viewBox="0 0 80 81" fill="none" xmlns="http://www.w3.org/2000/svg">
<g clip-path="url(#clip0_62_9)">
<path d="M43.9057 19.5891C43.9057 14.4194 39.6997 10.2141 34.5306 10.2141C29.3616 10.2141 25.1556 14.4194 25.1556 19.5891C25.1556 24.7582 29.3616 28.9635 34.5306 28.9635C39.6997 28.9635 43.9057 24.7582 43.9057 19.5891ZM34.5306 24.2766C31.9458 24.2766 29.8431 22.1734 29.8431 19.5891C29.8431 17.0043 31.9458 14.9016 34.5306 14.9016C37.1155 14.9016 39.2182 17.0043 39.2182 19.5891C39.2182 22.1734 37.1155 24.2766 34.5306 24.2766Z" fill="#6F5B3E"/>
<path d="M34.5307 28.9635C28.0689 28.9635 22.8119 34.2205 22.8119 40.6823V47.7135H46.2494V40.6823C46.2494 34.2205 40.9924 28.9635 34.5307 28.9635ZM41.5619 43.026H27.4994V40.6823C27.4994 36.8053 30.6537 33.651 34.5307 33.651C38.4076 33.651 41.5619 36.8053 41.5619 40.6823V43.026Z" fill="#6F5B3E"/>
<path d="M18.125 78.4942V80.838H46.2494V78.4942C46.2494 74.6173 49.4037 71.463 53.2807 71.463H64.9988V52.4011H75.9937C75.9937 52.4011 66.7517 35.6091 64.9976 32.6269C64.9982 29.3383 64.9976 27.2362 64.9976 27.2362C63.2227 13.5729 51.6974 2.58596 38.0847 1.04116C19.5068 -1.06639 4.06247 13.4838 4.06247 31.3073C4.06247 37.3211 5.81479 43.1414 9.12961 48.139C14.9298 56.8835 18.1244 67.6623 18.125 78.49M68.0628 47.7136H60.3119V57.0886H50.9369V61.7755H60.3119V66.7755H53.2807C47.6215 66.7755 42.8864 70.8081 41.7975 76.1505H22.7667C22.3382 65.2056 18.9215 54.4201 13.0359 45.548C10.2319 41.3207 8.74997 36.3964 8.74997 31.3073C8.74997 16.3994 21.6296 3.89211 37.5562 5.69875C49.0204 6.99941 58.7763 16.4428 60.3119 27.694C60.3119 28.2336 60.3131 33.9904 60.3131 33.9904L60.705 34.5812C61.1853 35.3014 64.9274 42.0324 68.0628 47.7136Z" fill="#6F5B3E"/>
</g>
<defs>
<clipPath id="clip0_62_9">
<rect width="80" height="80" fill="white" transform="translate(0 0.994141)"/>
</clipPath>
</defs>
</svg>
