<svg width="81" height="81" viewBox="0 0 81 81" fill="none" xmlns="http://www.w3.org/2000/svg">
<g clip-path="url(#clip0_64_99)">
<path d="M10.027 80.6761L22.787 66.4275H56.8806V38.3153H63.05L75.7783 51.892V38.3153H80.4634V0.676147H24.0834V14.8912C21.7689 17.188 20.2473 20.194 19.6437 23.7267C19.3043 25.7115 19.2769 27.4053 19.496 28.9446H0.5V66.4275H10.027V80.6761ZM75.7777 5.36121V33.6296H71.0927V40.0438L65.0795 33.6296H50.5958C51.5956 31.5654 52.1949 29.3938 52.1949 26.6021C52.1949 17.343 45.5934 11.0656 37.187 10.3527C34.2433 10.103 31.3405 10.5822 28.7684 11.7131V5.36121H75.7777ZM24.2622 24.5159C25.4902 17.3271 31.4393 14.5665 36.7909 15.0212C42.126 15.4735 47.5099 19.2302 47.5099 26.6021C47.5099 32.1331 44.2152 34.3633 39.1298 43.0004H38.1392V32.2576L42.1382 28.2579L38.8252 24.9449L35.796 27.9741L32.7675 24.9449L29.4545 28.2579L33.4535 32.2576V43.0004H32.4641C26.4381 32.7239 23.1251 31.1669 24.2622 24.5159ZM5.18506 61.7418V33.6296H21.0322C22.7424 37.0037 25.6263 40.4186 29.073 46.4983L29.7462 47.686H41.8464L42.5197 46.4983C44.474 43.0516 46.1732 40.6365 47.751 38.3153H52.1956V61.7418H20.6935L14.712 68.4209V61.7418H5.18506Z" fill="#6F5B3E"/>
<path d="M28.7683 52.3711H42.8241V57.0568H28.7683V52.3711Z" fill="#6F5B3E"/>
</g>
<defs>
<clipPath id="clip0_64_99">
<rect width="80" height="80" fill="white" transform="translate(0.5 0.676147)"/>
</clipPath>
</defs>
</svg>
