<svg width="33" height="27" viewBox="0 0 33 27" fill="none" xmlns="http://www.w3.org/2000/svg">
<path d="M32.3042 3.22799C31.1278 3.7509 29.8618 4.10362 28.5334 4.26147C29.8897 3.4495 30.9297 2.16334 31.4201 0.629044C30.1515 1.3819 28.7471 1.92819 27.2512 2.2231C26.054 0.947336 24.3476 0.149658 22.4592 0.149658C18.834 0.149658 15.8946 3.08898 15.8946 6.71491C15.8946 7.22872 15.9525 7.72955 16.0648 8.21088C10.6084 7.93676 5.77037 5.32352 2.53224 1.35137C1.96711 2.32054 1.64362 3.4482 1.64362 4.65251C1.64362 6.92992 2.80246 8.9397 4.56411 10.1167C3.48841 10.0823 2.47573 9.78675 1.59036 9.29502C1.58971 9.3223 1.58971 9.35024 1.58971 9.37817C1.58971 12.5585 3.85283 15.2113 6.85646 15.8155C6.30562 15.9649 5.72555 16.0454 5.12664 16.0454C4.70312 16.0454 4.29194 16.0045 3.89115 15.9272C4.72715 18.5352 7.15137 20.4339 10.0238 20.4865C7.77691 22.2475 4.94671 23.2973 1.87032 23.2973C1.34092 23.2973 0.818013 23.2661 0.304199 23.205C3.2104 25.0686 6.66094 26.1547 10.3681 26.1547C22.4443 26.1547 29.0472 16.1513 29.0472 7.47556C29.0472 7.19105 29.0414 6.90718 29.029 6.62527C30.3113 5.70157 31.4247 4.54468 32.3042 3.22799Z" fill="white"/>
</svg>
