<svg width="31" height="22" viewBox="0 0 31 22" fill="none" xmlns="http://www.w3.org/2000/svg">
<path d="M29.931 3.86685C29.583 2.5645 28.5574 1.53899 27.255 1.1909C24.8944 0.558349 15.4293 0.55835 15.4293 0.55835C15.4293 0.55835 5.96422 0.558349 3.60355 1.1909C2.30143 1.53899 1.27569 2.5645 0.927666 3.86685C0.295288 6.22729 0.295288 11.1524 0.295288 11.1524C0.295288 11.1524 0.295288 16.0773 0.927666 18.4375C1.27569 19.7399 2.30143 20.7657 3.60355 21.1137C5.96422 21.746 15.4293 21.746 15.4293 21.746C15.4293 21.746 24.8944 21.746 27.255 21.1137C28.5574 20.7657 29.583 19.7399 29.931 18.4375C30.5633 16.0773 30.5633 11.1524 30.5633 11.1524C30.5633 11.1524 30.5633 6.22729 29.931 3.86685ZM12.4023 15.6926V6.61202L20.2661 11.1524L12.4023 15.6926Z" fill="white"/>
</svg>
